<svg width="19" height="20" viewBox="0 0 19 20" fill="none" xmlns="http://www.w3.org/2000/svg">
<g id="xmark.square.fill 1" clip-path="url(#clip0_119_309)">
<g id="Group">
<path id="Vector" d="M18.6257 3.71652V16.3042C18.6257 18.4279 17.5735 19.5 15.4489 19.5H3.1768C1.0623 19.5 0 18.4382 0 16.3042V3.71652C0 1.58249 1.0623 0.52063 3.1768 0.52063H15.4489C17.5735 0.52063 18.6257 1.5928 18.6257 3.71652ZM12.1609 5.93301L9.31791 8.80931L6.49522 5.94332C6.33335 5.78869 6.15124 5.70621 5.91854 5.70621C5.45315 5.70621 5.08894 6.06704 5.08894 6.55157C5.08894 6.77838 5.16987 6.98457 5.33174 7.14952L8.1342 10.0052L5.33174 12.8712C5.16987 13.0258 5.08894 13.2423 5.08894 13.4692C5.08894 13.9434 5.45315 14.3248 5.91854 14.3248C6.15124 14.3248 6.3637 14.2423 6.52558 14.0773L9.31791 11.2114L12.1204 14.0773C12.2721 14.2423 12.4947 14.3248 12.7173 14.3248C13.1928 14.3248 13.5671 13.9434 13.5671 13.4692C13.5671 13.232 13.4862 13.0155 13.3243 12.8609L10.5118 10.0052L13.3344 7.1392C13.5064 6.95364 13.5773 6.76807 13.5773 6.53095C13.5773 6.05673 13.2029 5.68559 12.7375 5.68559C12.525 5.68559 12.3328 5.75776 12.1609 5.93301Z" fill="#A1A1A6" fill-opacity="0.85"/>
</g>
</g>
<defs>
<clipPath id="clip0_119_309">
<rect width="19" height="19" fill="white" transform="translate(0 0.5)"/>
</clipPath>
</defs>
</svg>
