<svg width="19" height="18" viewBox="0 0 19 18" fill="none" xmlns="http://www.w3.org/2000/svg">
<path d="M10.8689 15.0262H7.00374V10.0749C7.00374 9.73034 7.23595 9.5056 7.58052 9.5056H10.2996C10.6442 9.5056 10.8689 9.73034 10.8689 10.0749V15.0262ZM2.33708 14.5768C2.33708 15.618 2.96629 16.2322 4.02247 16.2322H13.8726C14.9288 16.2322 15.5505 15.618 15.5505 14.5768V8.64421L9.39326 3.48314C9.10861 3.24344 8.77149 3.25094 8.49436 3.48314L2.33708 8.64421V14.5768ZM0 7.89512C0 8.20224 0.2397 8.49441 0.644195 8.49441C0.853931 8.49441 1.02622 8.38203 1.18352 8.25471L8.68167 1.96255C8.84644 1.81274 9.0487 1.81274 9.21346 1.96255L16.7116 8.25471C16.8614 8.38203 17.0337 8.49441 17.2435 8.49441C17.5955 8.49441 17.8801 8.27718 17.8801 7.9176C17.8801 7.69288 17.8052 7.54307 17.6479 7.40824L9.85018 0.853933C9.29584 0.382022 8.60674 0.382022 8.04495 0.853933L0.2397 7.40824C0.0749063 7.54307 0 7.72284 0 7.89512ZM13.6704 4.51685L15.5505 6.10487V2.64419C15.5505 2.3146 15.3408 2.10487 15.0112 2.10487H14.2097C13.8877 2.10487 13.6704 2.3146 13.6704 2.64419V4.51685Z" fill="#FA586A"/>
</svg>
