<svg width="34" height="30" viewBox="0 0 34 30" fill="none" xmlns="http://www.w3.org/2000/svg">
<path d="M8.63419 8.49C11.4087 3.68436 12.796 1.28154 14.6171 0.493473C16.1376 -0.16449 17.8624 -0.16449 19.3829 0.493473C21.204 1.28154 22.5913 3.68436 25.3658 8.49L29.4188 15.51C32.1933 20.3156 33.5806 22.7185 33.3525 24.6896C33.1621 26.3354 32.2997 27.8291 30.9697 28.8169C29.3766 30 26.6021 30 21.053 30H12.947C7.39793 30 4.62339 30 3.03035 28.8169C1.7003 27.8291 0.837878 26.3354 0.647459 24.6896C0.419388 22.7185 1.80666 20.3156 4.5812 15.51L8.63419 8.49Z" fill="white" fill-opacity="0.05"/>
</svg>
