<svg width="34" height="30" viewBox="0 0 34 30" fill="none" xmlns="http://www.w3.org/2000/svg">
<path d="M8.73812 8.31C11.4202 3.66446 12.7613 1.3417 14.5023 0.544584C16.0883 -0.181527 17.9117 -0.181527 19.4977 0.544584C21.2387 1.3417 22.5798 3.66446 25.2619 8.31L29.5227 15.69C32.2048 20.3355 33.5459 22.6583 33.3657 24.5646C33.2015 26.3012 32.2898 27.8803 30.868 28.8908C29.3071 30 26.625 30 21.2608 30H12.7392C7.37495 30 4.69285 30 3.13201 28.8908C1.7102 27.8803 0.798475 26.3012 0.634324 24.5646C0.454121 22.6583 1.79517 20.3355 4.47727 15.69L8.73812 8.31Z" fill="white" fill-opacity="0.1"/>
</svg>
