<svg width="20" height="20" viewBox="0 0 20 20" fill="none" xmlns="http://www.w3.org/2000/svg">
<g id="magnifyingglass.svg" clip-path="url(#clip0_108_8)">
<g id="Group">
<path id="Vector" d="M0 8.15918C0 12.456 3.49609 15.9521 7.79297 15.9521C9.49219 15.9521 11.0449 15.4053 12.3242 14.4873L17.1289 19.3017C17.3535 19.5264 17.6465 19.6338 17.959 19.6338C18.623 19.6338 19.082 19.1357 19.082 18.4814C19.082 18.1689 18.9648 17.8857 18.7598 17.6807L13.9844 12.876C14.9902 11.5674 15.5859 9.93652 15.5859 8.15918C15.5859 3.8623 12.0898 0.366211 7.79297 0.366211C3.49609 0.366211 0 3.8623 0 8.15918ZM1.66992 8.15918C1.66992 4.78027 4.41406 2.03613 7.79297 2.03613C11.1719 2.03613 13.916 4.78027 13.916 8.15918C13.916 11.5381 11.1719 14.2822 7.79297 14.2822C4.41406 14.2822 1.66992 11.5381 1.66992 8.15918Z" fill="#A1A1A6"/>
</g>
</g>
<defs>
<clipPath id="clip0_108_8">
<rect width="19.4434" height="19.2676" fill="white" transform="translate(0 0.366211)"/>
</clipPath>
</defs>
</svg>
