<svg width="19" height="18" viewBox="0 0 19 18" fill="none" xmlns="http://www.w3.org/2000/svg">
<g clip-path="url(#clip0_108_88)">
<path d="M16.8652 1.14355C17.8613 2.13965 18.0078 3.52637 18.0078 5.19629V12.7842C18.0078 14.4541 17.8613 15.8506 16.8652 16.8467C15.8691 17.8428 14.4629 17.999 12.793 17.999H5.20508C3.54492 17.999 2.13867 17.8428 1.14258 16.8467C0.146484 15.8506 0 14.4541 0 12.7842V5.17676C0 3.53613 0.146484 2.13965 1.14258 1.14355C2.13867 0.147461 3.54492 -0.00878906 5.18555 -0.00878906H12.793C14.4629 -0.00878906 15.8691 0.147461 16.8652 1.14355ZM3.59375 9.00488C3.59375 11.9346 6.06445 14.4053 8.98438 14.4053C11.9336 14.4053 14.3848 11.9443 14.3848 9.00488C14.3848 6.07519 11.9141 3.60449 8.98438 3.60449C6.04492 3.60449 3.59375 6.06543 3.59375 9.00488ZM11.1426 12.2373C10.5273 12.667 9.78516 12.9209 8.98438 12.9209C6.86523 12.9209 5.07812 11.1338 5.07812 9.00488C5.07812 8.21387 5.3418 7.47168 5.75195 6.84668L11.1426 12.2373ZM12.9004 9.00488C12.9004 9.7959 12.6367 10.5381 12.2266 11.1631L6.82617 5.77246C7.45117 5.34277 8.19336 5.08887 8.98438 5.08887C11.1133 5.08887 12.9004 6.87598 12.9004 9.00488Z" fill="#FA586A"/>
</g>
<defs>
<clipPath id="clip0_108_88">
<rect width="18.3691" height="18.0176" fill="white" transform="translate(0 -0.00878906)"/>
</clipPath>
</defs>
</svg>
