<svg width="18" height="18" viewBox="0 0 18 18" fill="none" xmlns="http://www.w3.org/2000/svg">
<g clip-path="url(#clip0_108_83)">
<path d="M16.9816 3.37791V14.6406C16.9816 16.5407 16.0223 17.5 14.0852 17.5H2.89638C0.968532 17.5 0 16.55 0 14.6406V3.37791C0 1.46852 0.968532 0.518433 2.89638 0.518433H14.0852C16.0223 0.518433 16.9816 1.47774 16.9816 3.37791ZM7.69291 5.30575V8.1929H4.80576C4.32611 8.1929 3.99405 8.52496 3.99405 9.00462C3.99405 9.47505 4.32611 9.78866 4.80576 9.78866H7.69291V12.6851C7.69291 13.1554 8.01576 13.4968 8.48619 13.4968C8.96584 13.4968 9.29791 13.1647 9.29791 12.6851V9.78866H12.1943C12.6647 9.78866 13.006 9.47505 13.006 9.00462C13.006 8.52496 12.6647 8.1929 12.1943 8.1929H9.29791V5.30575C9.29791 4.8261 8.96584 4.4848 8.48619 4.4848C8.01576 4.4848 7.69291 4.8261 7.69291 5.30575Z" fill="#FA586A"/>
</g>
<defs>
<clipPath id="clip0_108_83">
<rect width="17.3228" height="17" fill="white" transform="translate(0 0.5)"/>
</clipPath>
</defs>
</svg>
