<svg width="12" height="13" viewBox="0 0 12 13" fill="none" xmlns="http://www.w3.org/2000/svg">
<g id="arrow.up.arrow.down 1" clip-path="url(#clip0_57_3288)">
<g id="Group">
<path id="Vector" d="M9.12742 12.3109L11.6718 9.01136C11.7627 8.90287 11.8132 8.73694 11.8132 8.59016C11.8132 8.25189 11.6314 8.02851 11.3689 8.02851C11.2377 8.02851 11.1417 8.07956 11.0559 8.18804L10.0059 9.56019L9.19308 10.7537L9.23852 9.27937V1.07836C9.23852 0.746489 9.05174 0.503967 8.78923 0.503967C8.52166 0.503967 8.33483 0.746489 8.33483 1.07836V9.27937L8.38534 10.7537L7.57253 9.56019L6.52249 8.18804C6.43668 8.07956 6.33572 8.02851 6.20948 8.02851C5.94697 8.02851 5.76019 8.25189 5.76019 8.59016C5.76019 8.73694 5.81571 8.90287 5.90659 9.01136L8.45099 12.3109C8.63777 12.5598 8.93057 12.5662 9.12742 12.3109Z" fill="white" fill-opacity="0.92"/>
<path id="Vector_2" d="M2.69079 0.695461L0.141355 3.98226C0.0555322 4.09714 0 4.26308 0 4.40348C0 4.74174 0.181741 4.97149 0.444257 4.97149C0.575514 4.97149 0.676481 4.91405 0.762305 4.80556L1.81237 3.4334L2.62515 2.24632L2.57467 3.72059V11.9216C2.57467 12.2599 2.76146 12.496 3.02903 12.496C3.29154 12.496 3.47833 12.2599 3.47833 11.9216V3.72059L3.43289 2.24632L4.24064 3.4334L5.29573 4.80556C5.38159 4.91405 5.47749 4.97149 5.60874 4.97149C5.87125 4.97149 6.05301 4.74174 6.05301 4.40348C6.05301 4.26308 6.00251 4.09714 5.91163 3.98226L3.36727 0.695461C3.18048 0.446558 2.88262 0.433794 2.69079 0.695461Z" fill="white" fill-opacity="0.92"/>
</g>
</g>
<defs>
<clipPath id="clip0_57_3288">
<rect width="12" height="12" fill="white" transform="translate(0 0.5)"/>
</clipPath>
</defs>
</svg>
