<svg width="9" height="12" viewBox="0 0 9 12" fill="none" xmlns="http://www.w3.org/2000/svg">
<g clip-path="url(#clip0_14_279)">
<path d="M8.83626 4.87791V9.29548C8.83626 10.2073 8.37148 10.6677 7.44637 10.6677H2.36927C1.44414 10.6677 0.97937 10.2073 0.97937 9.29548V4.87791C0.97937 3.96608 1.44414 3.50574 2.36927 3.50574H3.70161V4.21839H2.37812C1.93548 4.21839 1.69202 4.45741 1.69202 4.91776V9.25564C1.69202 9.71597 1.93548 9.95502 2.37812 9.95502H7.43309C7.8713 9.95502 8.12359 9.71597 8.12359 9.25564V4.91776C8.12359 4.45741 7.8713 4.21839 7.43309 4.21839H6.114V3.50574H7.44637C8.37148 3.50574 8.83626 3.96608 8.83626 4.87791Z" fill="white" fill-opacity="0.92"/>
<path d="M4.9056 7.20179C5.09594 7.20179 5.25972 7.04242 5.25972 6.85654V2.31059L5.23316 1.64663L5.52974 1.96091L6.20252 2.67798C6.26453 2.74881 6.35305 2.78422 6.44158 2.78422C6.62306 2.78422 6.76471 2.65143 6.76471 2.46994C6.76471 2.37699 6.72487 2.30617 6.65846 2.23977L5.16234 0.796758C5.0738 0.708231 4.99856 0.677246 4.9056 0.677246C4.81708 0.677246 4.74182 0.708231 4.64887 0.796758L3.15274 2.23977C3.08635 2.30617 3.05093 2.37699 3.05093 2.46994C3.05093 2.65143 3.18373 2.78422 3.36964 2.78422C3.45374 2.78422 3.55112 2.74881 3.61309 2.67798L4.28148 1.96091L4.58247 1.64663L4.55591 2.31059V6.85654C4.55591 7.04242 4.71527 7.20179 4.9056 7.20179Z" fill="white" fill-opacity="0.92"/>
</g>
<defs>
<clipPath id="clip0_14_279">
<rect width="8.02065" height="12" fill="white" transform="translate(0.97937)"/>
</clipPath>
</defs>
</svg>
