<svg width="4" height="21" viewBox="0 0 4 21" fill="none" xmlns="http://www.w3.org/2000/svg">
<path d="M2.00003 3.61286C2.89992 3.61286 3.62397 2.88881 3.62397 1.98892C3.62397 1.08904 2.89992 0.36499 2.00003 0.36499C1.10015 0.36499 0.376099 1.08904 0.376099 1.98892C0.376099 2.88881 1.10015 3.61286 2.00003 3.61286Z" fill="white" fill-opacity="0.92"/>
<path d="M2.00003 11.8608C2.89992 11.8608 3.62397 11.1367 3.62397 10.2369C3.62397 9.33697 2.89992 8.61292 2.00003 8.61292C1.10015 8.61292 0.376099 9.33697 0.376099 10.2369C0.376099 11.1367 1.10015 11.8608 2.00003 11.8608Z" fill="white" fill-opacity="0.92"/>
<path d="M2.00003 20.1086C2.89992 20.1086 3.62397 19.3845 3.62397 18.4846C3.62397 17.5848 2.89992 16.8607 2.00003 16.8607C1.10015 16.8607 0.376099 17.5848 0.376099 18.4846C0.376099 19.3845 1.10015 20.1086 2.00003 20.1086Z" fill="white" fill-opacity="0.92"/>
</svg>
