<svg width="12" height="9" viewBox="0 0 12 9" fill="none" xmlns="http://www.w3.org/2000/svg">
<g id="eye 1" clip-path="url(#clip0_61_5127)">
<g id="Group">
<path id="Vector" d="M5.92201 8.2148C9.42236 8.2148 11.8397 5.38594 11.8397 4.50219C11.8397 3.6141 9.41806 0.789551 5.92201 0.789551C2.46931 0.789551 0 3.6141 0 4.50219C0 5.38594 2.46498 8.2148 5.92201 8.2148ZM5.92201 7.53035C3.06714 7.53035 0.75812 5.11301 0.75812 4.50219C0.75812 3.98666 3.06714 1.47402 5.92201 1.47402C8.76391 1.47402 11.0816 3.98666 11.0816 4.50219C11.0816 5.11301 8.76391 7.53035 5.92201 7.53035ZM5.92201 6.92819C7.2693 6.92819 8.35233 5.82347 8.35233 4.50219C8.35233 3.14623 7.2693 2.07619 5.92201 2.07619C4.56608 2.07619 3.48303 3.14623 3.48303 4.50219C3.48303 5.82347 4.56608 6.92819 5.92201 6.92819ZM5.92201 5.30795C5.47148 5.30795 5.10759 4.94406 5.10759 4.50219C5.10759 4.05598 5.47148 3.69641 5.92201 3.69641C6.36824 3.69641 6.73213 4.05598 6.73213 4.50219C6.73213 4.94406 6.36824 5.30795 5.92201 5.30795Z" fill="white" fill-opacity="0.85"/>
</g>
</g>
<defs>
<clipPath id="clip0_61_5127">
<rect width="12" height="7.42958" fill="white" transform="translate(0 0.785217)"/>
</clipPath>
</defs>
</svg>
